<svg xmlns="http://www.w3.org/2000/svg" xmlns:xlink="http://www.w3.org/1999/xlink" width="500" zoomAndPan="magnify" viewBox="0 0 375 374.999991" height="500" preserveAspectRatio="xMidYMid meet" version="1.0"><defs><g/><clipPath id="d4c0884b1a"><path d="M 187.5 0 C 83.945312 0 0 83.945312 0 187.5 C 0 291.054688 83.945312 375 187.5 375 C 291.054688 375 375 291.054688 375 187.5 C 375 83.945312 291.054688 0 187.5 0 Z M 187.5 0 " clip-rule="nonzero"/></clipPath></defs><g clip-path="url(#d4c0884b1a)"><rect x="-37.5" width="450" fill="#4d2c5e" y="-37.499999" height="449.999989" fill-opacity="1"/></g><g fill="#000000" fill-opacity="0.4"><g transform="translate(64.623655, 315.653661)"><g><path d="M 113.671875 -104.8125 C 112.285156 -97.164062 111.328125 -89.863281 110.796875 -82.90625 C 110.273438 -75.957031 110.015625 -69.703125 110.015625 -64.140625 C 110.015625 -61.003906 110.1875 -57.523438 110.53125 -53.703125 C 110.882812 -49.878906 111.671875 -46.316406 112.890625 -43.015625 C 114.109375 -39.710938 115.847656 -36.929688 118.109375 -34.671875 C 120.367188 -32.410156 123.582031 -31.28125 127.75 -31.28125 C 130.875 -31.28125 134.4375 -32.320312 138.4375 -34.40625 C 142.4375 -36.5 146.4375 -39.457031 150.4375 -43.28125 C 154.4375 -47.101562 158.257812 -51.796875 161.90625 -57.359375 C 165.550781 -62.921875 168.421875 -69.175781 170.515625 -76.125 L 256.03125 -76.125 L 242.46875 -20.34375 C 235.519531 -15.820312 227.523438 -11.992188 218.484375 -8.859375 C 209.441406 -5.734375 199.878906 -3.210938 189.796875 -1.296875 C 179.722656 0.609375 169.46875 1.992188 159.03125 2.859375 C 148.601562 3.734375 138.695312 4.171875 129.3125 4.171875 C 111.9375 4.171875 95.773438 2.609375 80.828125 -0.515625 C 65.878906 -3.648438 52.84375 -9.039062 41.71875 -16.6875 C 30.59375 -24.332031 21.8125 -34.5 15.375 -47.1875 C 8.945312 -59.875 5.734375 -75.601562 5.734375 -94.375 C 5.734375 -111.414062 8.425781 -128.101562 13.8125 -144.4375 C 19.207031 -160.78125 28.25 -175.296875 40.9375 -187.984375 C 53.625 -200.671875 70.65625 -210.835938 92.03125 -218.484375 C 113.414062 -226.128906 140.097656 -229.953125 172.078125 -229.953125 C 206.835938 -229.953125 232.992188 -224.5625 250.546875 -213.78125 C 268.109375 -203.007812 276.890625 -186.148438 276.890625 -163.203125 C 276.890625 -153.816406 275.5 -143.648438 272.71875 -132.703125 C 269.9375 -121.753906 265.765625 -112.457031 260.203125 -104.8125 Z M 183.03125 -166.859375 C 183.03125 -177.640625 181.289062 -184.941406 177.8125 -188.765625 C 174.332031 -192.585938 170.160156 -194.5 165.296875 -194.5 C 159.734375 -194.5 154.601562 -192.671875 149.90625 -189.015625 C 145.21875 -185.367188 140.960938 -180.503906 137.140625 -174.421875 C 133.316406 -168.335938 129.835938 -161.382812 126.703125 -153.5625 C 123.578125 -145.738281 120.972656 -137.484375 118.890625 -128.796875 L 178.328125 -128.796875 C 179.023438 -132.960938 179.722656 -137.304688 180.421875 -141.828125 C 181.109375 -145.648438 181.710938 -149.820312 182.234375 -154.34375 C 182.765625 -158.863281 183.03125 -163.035156 183.03125 -166.859375 Z M 183.03125 -166.859375 "/></g></g></g><g fill="#ffffff" fill-opacity="1"><g transform="translate(41.578603, 292.608608)"><g><path d="M 113.671875 -104.8125 C 112.285156 -97.164062 111.328125 -89.863281 110.796875 -82.90625 C 110.273438 -75.957031 110.015625 -69.703125 110.015625 -64.140625 C 110.015625 -61.003906 110.1875 -57.523438 110.53125 -53.703125 C 110.882812 -49.878906 111.671875 -46.316406 112.890625 -43.015625 C 114.109375 -39.710938 115.847656 -36.929688 118.109375 -34.671875 C 120.367188 -32.410156 123.582031 -31.28125 127.75 -31.28125 C 130.875 -31.28125 134.4375 -32.320312 138.4375 -34.40625 C 142.4375 -36.5 146.4375 -39.457031 150.4375 -43.28125 C 154.4375 -47.101562 158.257812 -51.796875 161.90625 -57.359375 C 165.550781 -62.921875 168.421875 -69.175781 170.515625 -76.125 L 256.03125 -76.125 L 242.46875 -20.34375 C 235.519531 -15.820312 227.523438 -11.992188 218.484375 -8.859375 C 209.441406 -5.734375 199.878906 -3.210938 189.796875 -1.296875 C 179.722656 0.609375 169.46875 1.992188 159.03125 2.859375 C 148.601562 3.734375 138.695312 4.171875 129.3125 4.171875 C 111.9375 4.171875 95.773438 2.609375 80.828125 -0.515625 C 65.878906 -3.648438 52.84375 -9.039062 41.71875 -16.6875 C 30.59375 -24.332031 21.8125 -34.5 15.375 -47.1875 C 8.945312 -59.875 5.734375 -75.601562 5.734375 -94.375 C 5.734375 -111.414062 8.425781 -128.101562 13.8125 -144.4375 C 19.207031 -160.78125 28.25 -175.296875 40.9375 -187.984375 C 53.625 -200.671875 70.65625 -210.835938 92.03125 -218.484375 C 113.414062 -226.128906 140.097656 -229.953125 172.078125 -229.953125 C 206.835938 -229.953125 232.992188 -224.5625 250.546875 -213.78125 C 268.109375 -203.007812 276.890625 -186.148438 276.890625 -163.203125 C 276.890625 -153.816406 275.5 -143.648438 272.71875 -132.703125 C 269.9375 -121.753906 265.765625 -112.457031 260.203125 -104.8125 Z M 183.03125 -166.859375 C 183.03125 -177.640625 181.289062 -184.941406 177.8125 -188.765625 C 174.332031 -192.585938 170.160156 -194.5 165.296875 -194.5 C 159.734375 -194.5 154.601562 -192.671875 149.90625 -189.015625 C 145.21875 -185.367188 140.960938 -180.503906 137.140625 -174.421875 C 133.316406 -168.335938 129.835938 -161.382812 126.703125 -153.5625 C 123.578125 -145.738281 120.972656 -137.484375 118.890625 -128.796875 L 178.328125 -128.796875 C 179.023438 -132.960938 179.722656 -137.304688 180.421875 -141.828125 C 181.109375 -145.648438 181.710938 -149.820312 182.234375 -154.34375 C 182.765625 -158.863281 183.03125 -163.035156 183.03125 -166.859375 Z M 183.03125 -166.859375 "/></g></g></g></svg>